<?xml version="1.0" encoding="UTF-8"?>
<svg xmlns="http://www.w3.org/2000/svg" viewBox="0 0 224 224" width="224" height="224">
  <defs>
    <linearGradient id="repologyGradient" x1="112" y1="224" x2="112" y2="0" gradientUnits="userSpaceOnUse">
      <stop offset="0" stop-color="#1e7d1e"/>
      <stop offset="0.660714" stop-color="#64c664"/>
      <stop offset="0.660714" stop-color="#d9534f"/>
      <stop offset="1" stop-color="#e89593"/>
    </linearGradient>
  </defs>
  <rect x="0" y="0" width="224" height="224" rx="48" fill="url(#repologyGradient)"/>
  <path fill="#fff" d="M90.156 0v31.529H48.652V64h127.441V31.529H134.59V0h-44.434zm20.961 86.453c-9.928 0-20.059.937-30.394 2.809-10.335 1.79-20.794 4.434-31.373 7.933v40.04c9.928-6.185 19.247-10.824 27.955-13.917 8.708-3.174 16.723-4.76 24.047-4.76 9.521 0 17.131 2.604 22.828 7.813 5.778 5.208 8.666 12.084 8.666 20.628 0 5.534-1.423 10.866-4.271 15.993-2.848 5.127-7.243 10.375-13.184 15.746L64.108 224h52.328l23.611-20.725c16.439-14.404 27.223-25.879 32.35-34.424 5.127-8.626 7.689-17.904 7.689-27.832 0-17.171-6.062-30.559-18.187-40.162-12.044-9.603-28.971-14.404-50.782-14.404z" transform="translate(0 0)"/>
</svg>
